<svg width="48" height="48" viewBox="0 0 48 48" fill="none" xmlns="http://www.w3.org/2000/svg">
<path d="M38.1398 33.0944C36.2376 35.0351 33.5769 36.1325 30.6947 36.1364C27.8106 36.1421 25.148 35.0524 23.2458 33.1175C22.3159 32.1741 21.6343 31.0921 21.2108 29.935C20.7968 28.7991 20.6389 27.5842 20.7448 26.3809C20.8469 25.2065 21.1934 24.0648 21.7652 23.0328C22.3216 22.024 23.086 21.1133 24.0294 20.3432C25.8777 18.8357 28.2304 18.0213 30.6947 18.0175C33.1591 18.0136 35.5099 18.8242 37.3601 20.324C38.3015 21.0922 39.0659 21.999 39.6204 23.0059C40.1922 24.0378 40.5407 25.1776 40.6427 26.352C40.7486 27.5573 40.5888 28.7702 40.1749 29.9081C39.7513 31.0632 39.0678 32.1472 38.1398 33.0944Z" fill="white"/>
<path d="M24.5452 26.5041C24.6318 24.935 25.4019 23.5507 26.5609 22.5707C27.6988 21.6061 29.2313 21.0189 30.9005 21.0189C32.5717 21.0208 34.1023 21.6081 35.2401 22.5707C36.3992 23.5526 37.1693 24.935 37.2578 26.5041C37.3464 28.1175 36.6976 29.6173 35.5597 30.7282C34.4007 31.8583 32.7488 32.5687 30.9005 32.5687C29.0523 32.5687 27.3984 31.8583 26.2394 30.7282C25.1035 29.6173 24.4566 28.1175 24.5452 26.5041Z" fill="#005385"/>
<path d="M14.4203 29.6808C14.4318 30.293 14.6282 31.4867 14.9208 32.4205C15.5389 34.3939 16.5862 36.221 18.0456 37.8305C19.5435 39.4843 21.384 40.8128 23.5134 41.7543C25.7525 42.7458 28.1765 43.2521 30.6928 43.2464C33.2092 43.2425 35.6331 42.7285 37.8703 41.7292C39.9977 40.7762 41.8383 39.4439 43.3343 37.7862C44.7917 36.169 45.8371 34.34 46.4551 32.3665C46.7632 31.3827 46.9615 30.3681 47.0424 29.3419C47.1194 28.3408 47.0866 27.3319 46.9461 26.3365C46.6689 24.3843 45.9931 22.5533 44.9534 20.8841C44.0004 19.3516 42.7759 18.0077 41.3185 16.8757L41.3204 16.8737L26.615 5.58385C26.6035 5.57422 26.59 5.56267 26.5785 5.55304C25.61 4.81373 23.989 4.81566 22.9281 5.55882C21.8538 6.30968 21.7325 7.55149 22.6855 8.33509L22.6817 8.33701L28.8157 13.3274L10.1153 13.3466H10.0903C8.54621 13.3485 7.05989 14.3632 6.76532 15.6435C6.46497 16.9488 7.51425 18.0308 9.12187 18.0385L9.11994 18.0443L18.5981 18.0251L1.68448 31.0073C1.6633 31.0246 1.6402 31.04 1.62094 31.0554C0.0268038 32.2761 -0.489174 34.3092 0.513902 35.5953C1.53431 36.9025 3.70218 36.9045 5.31557 35.601L14.5454 28.0481C14.5454 28.0481 14.4106 29.0685 14.4203 29.6808ZM38.1398 33.0943C36.2376 35.035 33.5769 36.1324 30.6947 36.1363C27.8107 36.142 25.148 35.0523 23.2458 33.1174C22.3159 32.174 21.6343 31.092 21.2108 29.9349C20.7968 28.799 20.6389 27.5841 20.7448 26.3808C20.8469 25.2064 21.1934 24.0647 21.7652 23.0327C22.3217 22.0239 23.086 21.1132 24.0294 20.3431C25.8777 18.8356 28.2304 18.0212 30.6947 18.0174C33.1591 18.0135 35.5099 18.8241 37.3601 20.3239C38.3016 21.0921 39.0659 21.9989 39.6204 23.0058C40.1922 24.0377 40.5407 25.1775 40.6427 26.3519C40.7486 27.5572 40.5888 28.7701 40.1749 29.9079C39.7513 31.0631 39.0678 32.1471 38.1398 33.0943Z" fill="#FF7021"/>
</svg>
