<svg width="80" height="80" viewBox="0 0 80 80" fill="none" xmlns="http://www.w3.org/2000/svg">
<path fill-rule="evenodd" clip-rule="evenodd" d="M46.5945 3.88115C56.7037 3.60126 68.3196 -3.99569 75.7607 2.85289C83.2058 9.70517 78.9458 22.0582 77.1668 32.0191C75.78 39.784 71.1858 45.7102 66.9212 52.3457C60.5531 62.2539 58.1318 77.2177 46.5945 79.5875C34.6861 82.0336 24.2623 71.543 15.7589 62.8547C7.36985 54.2831 -0.625539 43.9943 0.0386917 32.0191C0.68123 20.4349 9.07055 10.4256 18.9999 4.4244C27.1851 -0.522645 37.0342 4.14584 46.5945 3.88115Z" fill="#393939"/>
<path d="M36.667 51.2533H43.3337M37.7782 55.42H42.2225" stroke="white" stroke-width="3.33333" stroke-linecap="round"/>
<path d="M34.1912 43.2861L32.3511 41.5542C29.7825 39.1179 28.3481 35.9174 28.3336 32.5899L28.3335 32.4502C28.3335 26.7649 33.5568 22.0867 40.0002 22.0867C46.4435 22.0867 51.6668 26.7649 51.6668 32.4502L51.6667 32.5899C51.6522 35.9174 50.2178 39.1179 47.6492 41.5542L45.8092 43.2861C45.2928 43.7721 45.0002 44.4496 45.0002 45.1584C45.0002 46.2234 44.1368 47.0867 43.0718 47.0867H36.9285C35.8635 47.0867 35.0002 46.2234 35.0002 45.1584C35.0002 44.4496 34.7074 43.7721 34.1912 43.2861Z" stroke="white" stroke-width="3.33333"/>
</svg>
