<svg width="80" height="80" viewBox="0 0 80 80" fill="none" xmlns="http://www.w3.org/2000/svg">
<path fill-rule="evenodd" clip-rule="evenodd" d="M37.1211 0.0955496C45.9742 0.83405 51.8519 8.28024 58.6959 13.9444C66.7757 20.6314 78.895 25.0816 79.9233 35.5192C80.9781 46.2253 70.9297 54.1147 63.4116 61.8097C55.761 69.6404 48.0614 78.9273 37.1211 79.329C25.9466 79.7393 16.0475 72.3516 8.82626 63.814C2.19788 55.9773 -0.466155 45.7693 0.0660192 35.5192C0.569031 25.8307 4.60668 16.7213 11.6193 10.0174C18.4734 3.46503 27.6717 -0.692693 37.1211 0.0955496Z" fill="#393939"/>
<path d="M24.167 55.6814H50.8337" stroke="white" stroke-width="3.33333" stroke-linecap="round"/>
<path d="M40.6472 25.1196L41.883 23.8837C43.9305 21.8361 47.2503 21.8361 49.298 23.8837C51.3455 25.9313 51.3455 29.2512 49.298 31.2988L48.0622 32.5346M40.6472 25.1196C40.6472 25.1196 40.8015 27.7457 43.1188 30.0629C45.436 32.3801 48.0622 32.5346 48.0622 32.5346M40.6472 25.1196L29.2854 36.4812C28.5159 37.2507 28.1311 37.6355 27.8002 38.0599C27.4098 38.5602 27.0752 39.1017 26.8021 39.6747C26.5707 40.1602 26.3987 40.6764 26.0547 41.7083L26.0544 41.7092L24.5961 46.0842M48.0622 32.5346L36.7005 43.8962C35.931 44.6659 35.5462 45.0505 35.1218 45.3815C34.6215 45.7719 34.0799 46.1065 33.507 46.3795C33.0213 46.611 32.505 46.7832 31.4726 47.1272L27.0976 48.5857M24.5961 46.0842L24.2396 47.1535C24.0702 47.6617 24.2025 48.2219 24.5812 48.6005C24.9599 48.9792 25.52 49.1115 26.0281 48.942L27.0976 48.5857M24.5961 46.0842L27.0976 48.5857" stroke="white" stroke-width="3.33333"/>
</svg>
