<svg width="73" height="80" viewBox="0 0 73 80" fill="none" xmlns="http://www.w3.org/2000/svg">
<path fill-rule="evenodd" clip-rule="evenodd" d="M32.7863 0.0473248C44.939 0.917318 50.0408 15.4026 57.5991 24.9586C63.7788 32.7716 71.8335 39.8138 72.1155 49.7713C72.4032 59.9314 67.2129 69.9804 59.0454 76.0304C51.6899 81.4789 41.8589 80.1198 32.7863 78.9041C25.2259 77.891 18.3336 75.0034 12.733 69.8246C6.85756 64.3918 2.66994 57.6521 1.28032 49.7713C-0.451639 39.9491 -1.19118 29.5569 4.147 21.132C10.7429 10.7221 20.4942 -0.83265 32.7863 0.0473248Z" fill="#393939"/>
<path d="M21.9968 59.2156H50.2321C50.6482 59.2156 51.0472 59.0503 51.3413 58.7561C51.6355 58.4619 51.8008 58.063 51.8008 57.6469V29.4116C51.8008 28.9956 51.6355 28.5966 51.3413 28.3025C51.0472 28.0083 50.6482 27.843 50.2321 27.843H21.9968C21.5808 27.843 21.1818 28.0083 20.8877 28.3025C20.5935 28.5966 20.4282 28.9956 20.4282 29.4116V57.6469C20.4282 58.063 20.5935 58.4619 20.8877 58.7561C21.1818 59.0503 21.5808 59.2156 21.9968 59.2156ZM23.5655 40.392H26.7027V56.0783H23.5655V40.392ZM48.6635 56.0783H29.84V40.392H48.6635V56.0783ZM23.5655 30.9803H48.6635V37.2548H23.5655V30.9803Z" fill="white"/>
</svg>
