<svg width="69" height="80" viewBox="0 0 69 80" fill="none" xmlns="http://www.w3.org/2000/svg">
<path fill-rule="evenodd" clip-rule="evenodd" d="M43.562 0.0921522C53.2587 0.938557 61.4282 7.97801 66.5237 16.2712C70.6936 23.0582 68.1693 31.2869 67.6105 39.2329C67.1155 46.2714 67.1018 53.106 63.5064 59.1772C58.4354 67.74 53.4185 78.4675 43.562 79.8411C33.2721 81.275 24.7582 72.7205 17.1589 65.636C9.17815 58.1958 0.196281 50.1421 0.00339993 39.2329C-0.191357 28.2175 8.01371 19.2429 16.2085 11.8793C23.8856 4.98082 33.2799 -0.805358 43.562 0.0921522Z" fill="#393939"/>
<g clip-path="url(#clip0_760_987)">
<path fill-rule="evenodd" clip-rule="evenodd" d="M47.5516 47.7268C50.1549 45.1235 50.1549 40.9018 47.5516 38.3001C44.9482 35.6968 40.7266 35.6951 38.1232 38.2985L36.9432 39.4768L35.7666 38.2985C33.1632 35.6951 28.9416 35.6951 26.3382 38.2985C23.7349 40.9018 23.7349 45.1235 26.3382 47.7268L35.7666 57.1551C36.4166 57.8051 37.4732 57.8051 38.1232 57.1551L47.5516 47.7268ZM28.6949 45.3685C27.3949 44.0668 27.3949 41.9551 28.6949 40.6535C29.9966 39.3535 32.1082 39.3535 33.4082 40.6535L36.9416 44.1868L40.4782 40.6568C41.7816 39.3535 43.8932 39.3535 45.1949 40.6535C46.4949 41.9551 46.4949 44.0668 45.1949 45.3685L36.9449 53.6185L28.6949 45.3685Z" fill="white"/>
<path fill-rule="evenodd" clip-rule="evenodd" d="M36.9449 21.6668C40.6282 21.6668 43.6116 24.6501 43.6116 28.3335C43.6116 32.0168 40.6282 35.0001 36.9449 35.0001C33.2616 35.0001 30.2782 32.0168 30.2782 28.3335C30.2782 24.6501 33.2616 21.6668 36.9449 21.6668ZM33.6116 28.3335C33.6116 26.4918 35.1032 25.0001 36.9449 25.0001C38.7866 25.0001 40.2782 26.4918 40.2782 28.3335C40.2782 30.1751 38.7866 31.6668 36.9449 31.6668C35.1032 31.6668 33.6116 30.1751 33.6116 28.3335Z" fill="white"/>
</g>
<defs>
<clipPath id="clip0_760_987">
<rect width="40" height="40" fill="white" transform="translate(16.9448 20)"/>
</clipPath>
</defs>
</svg>
