<svg width="81" height="81" viewBox="0 0 81 81" fill="none" xmlns="http://www.w3.org/2000/svg">
<rect x="-9.83757" y="32.5888" width="60" height="80" rx="23.75" transform="rotate(-45 -9.83757 32.5888)" fill="#393939"/>
<path d="M39.67 27.6995V58.3753" stroke="white" stroke-width="7.5" stroke-linecap="round"/>
<path d="M55.8124 8.08878C57.0654 9.44743 58.299 11.7427 59.2107 13.7595C60.221 15.9944 61.4071 19.5259 61.6765 21.9638C61.8368 23.4136 61.6721 25.6988 61.6721 25.6988C61.6721 25.6988 61.7008 27.7312 61.6765 29.0331C61.6221 31.9551 60.744 34.8418 59.0286 37.2079C58.4289 38.0351 57.8458 38.7254 57.1499 39.3759C55.8323 40.6074 54.9593 41.3171 53.2728 41.9562C51.3955 42.6675 48.6577 43.0373 46.6502 43.0373C46.0159 43.0373 45.4156 43.0373 45.0049 43.0373C43.8094 43.0373 43.2009 42.9757 42.3374 43.0373C32.3344 43.0373 45.1825 43.0373 47.0055 43.0373C48.0958 43.0373 49.506 43.0373 50.6027 43.0373C51.7511 43.0373 52.8883 43.2565 53.9545 43.683C55.0895 44.137 56.1508 44.7831 57.0811 45.5761C57.7639 46.1581 58.529 46.8645 59.123 47.6806C59.2905 47.9108 59.4706 48.1915 59.6397 48.4697C60.1313 49.2787 60.4932 50.1573 60.7926 51.0554C61.3781 52.8118 61.6765 54.651 61.6765 56.5024V57.0415" stroke="white" stroke-width="7.5" stroke-linecap="round"/>
<path d="M26.4124 74.4638C25.3529 72.8399 22.6272 69.7504 21.6796 68.3783C20.8166 67.1288 20.2102 66.1996 19.679 65.0439C19.4242 64.4895 18.9998 63.3926 18.6273 62.4014C18.1218 61.0564 17.7239 59.6642 17.6741 58.2282C17.6611 57.8533 17.6597 57.4513 17.6783 57.0416C17.8106 54.1256 18.6128 51.2303 20.3261 48.867C20.9259 48.0397 21.509 47.3493 22.205 46.6988C23.5226 45.4673 24.3956 44.7576 26.0821 44.1185C27.9594 43.4072 30.6971 43.0374 32.7047 43.0374C33.3389 43.0374 33.9393 43.0374 34.3499 43.0374C35.5455 43.0374 36.1539 43.099 37.0174 43.0374C47.0205 43.0374 34.1723 43.0374 32.3493 43.0374C31.259 43.0374 29.8488 43.0374 28.7522 43.0374C27.6038 43.0374 26.4666 42.8182 25.4004 42.3917C24.2654 41.9377 23.204 41.2916 22.2738 40.4986C21.5909 39.9166 20.8259 39.2102 20.2319 38.3941C20.0644 38.1639 19.8842 37.8832 19.7152 37.605C19.2235 36.796 18.8616 35.9173 18.5623 35.0193C17.9768 33.2629 17.6783 31.4236 17.6783 29.5723V29.0332" stroke="white" stroke-width="7.5" stroke-linecap="round"/>
<path d="M39.6696 27.6995C39.6696 27.6995 39.744 25.4985 39.3117 24.1908C38.6026 22.0458 37.5834 20.8958 35.6684 19.6971C33.875 18.5745 30.4198 18.3531 30.4198 18.3531C30.4198 18.3531 25.584 17.6949 22.9979 19.0302C20.5833 20.2769 19.3435 21.6694 18.3299 24.1908C17.6179 25.962 17.663 29.0332 17.663 29.0332" stroke="white" stroke-width="7.5" stroke-linecap="round"/>
</svg>
